PathFileType	4	(X/Y/Z)	./resultDataOpenSim/trcMotMarkerGrf/sub06/qtm-12-03.trc
DataRate	CameraRate	NumFrames	NumMarkers	Units	OrigDataRate	OrigDataStartFrame	OrigNumFrames
250.000000	250.000000	9	24	m	250.000000	66	523
Frame#	Time	L.Toe.Tip			R.Toe.Tip			L.Ankle.Lat			R.Ankle.Lat			L.Ankle.Med			R.Ankle.Med			L.Heel			R.Heel			L.Knee.Lat			R.Knee.Lat			L.Knee.Med			R.Knee.Med			L.Thigh.Upper			R.Thigh.Upper			L.ASIS			R.ASIS			V.Sacral			L.Acromium			R.Acromium			C7			L.Elbow			R.Elbow			L.Wrist.Lat			R.Wrist.Lat
		X1	Y1	Z1	X2	Y2	Z2	X3	Y3	Z3	X4	Y4	Z4	X5	Y5	Z5	X6	Y6	Z6	X7	Y7	Z7	X8	Y8	Z8	X9	Y9	Z9	X10	Y10	Z10	X11	Y11	Z11	X12	Y12	Z12	X13	Y13	Z13	X14	Y14	Z14	X15	Y15	Z15	X16	Y16	Z16	X17	Y17	Z17	X18	Y18	Z18	X19	Y19	Z19	X20	Y20	Z20	X21	Y21	Z21	X22	Y22	Z22	X23	Y23	Z23	X24	Y24	Z24

66	0.26	-1.1591976	0.083820635	-0.10130233	-0.76137542	0.035681141	0.064429099	-1.1843737	0.21266323	-0.11826878	-0.89737016	0.061860853	0.084051171	-1.1604	0.21458831	-0.03822635	-0.87550507	0.080430234	-0.0020381369	-1.2375405	0.25739355	-0.062413738	-0.95100785	0.038269679	0.021031542	-0.86367293	0.40666277	-0.15610504	-0.81977341	0.44110009	0.1196219	-0.85746107	0.39885508	-0.030838961	-0.85797521	0.4350061	-0.0034345486	-0.93917056	0.79759349	-0.15184286	-0.90546363	0.80605932	0.18849813	-0.86057105	0.84980813	-0.11918406	-0.82482918	0.86090339	0.12565084	-1.0273324	0.92922157	0.030645263	-0.89386092	1.3432412	-0.15560703	-0.88711857	1.3139633	0.20513479	-0.96734511	1.3707217	0.026977957	-0.90741994	1.0225647	-0.2327161	-0.9853979	1.0110456	0.25896933	-0.71429269	0.86930863	-0.20156897	-0.87905038	0.79887034	0.29329691
67	0.264	-1.1411421	0.082998794	-0.10105693	-0.76146452	0.035692329	0.064498862	-1.169367	0.21102673	-0.11766712	-0.89712898	0.062008233	0.084195576	-1.1455811	0.21328202	-0.037607381	-0.87559945	0.080628157	-0.0018534741	-1.2235467	0.25444988	-0.061759339	-0.95101679	0.038399298	0.020980581	-0.85143342	0.40942217	-0.15564828	-0.81972083	0.4412633	0.12010444	-0.84498006	0.40179226	-0.03040322	-0.85745659	0.4352559	-0.003238858	-0.93225897	0.79965853	-0.15216651	-0.90060732	0.80698266	0.18890584	-0.85401218	0.85178123	-0.11847206	-0.819856	0.86230667	0.12657349	-1.0214704	0.9309452	0.032450307	-0.88838918	1.3448731	-0.1553923	-0.88066315	1.3159904	0.20520337	-0.96147196	1.372253	0.027268461	-0.9038735	1.0243584	-0.2319735	-0.97704785	1.0122269	0.25990731	-0.711923	0.86943	-0.20212253	-0.86690809	0.80154178	0.29292418
68	0.268	-1.1226339	0.082126131	-0.10098144	-0.76154473	0.035709337	0.064568826	-1.1541794	0.20921259	-0.11708894	-0.89705573	0.062077697	0.084317445	-1.1304685	0.21181821	-0.03697388	-0.87565663	0.08084427	-0.0016401982	-1.2094577	0.25121388	-0.061110202	-0.95111084	0.038474165	0.021081978	-0.83924538	0.41220888	-0.15513478	-0.81954008	0.44138119	0.12050754	-0.83267124	0.40484534	-0.029933275	-0.85697066	0.43547617	-0.0029936096	-0.92531876	0.80169455	-0.15251541	-0.89619116	0.80781182	0.18913654	-0.84765942	0.85370045	-0.11789865	-0.81460956	0.86370104	0.12750474	-1.0159362	0.93260363	0.033592757	-0.88291804	1.3464557	-0.1551707	-0.87429404	1.3179746	0.20525722	-0.95560621	1.3737428	0.027562086	-0.90036892	1.0261394	-0.23126563	-0.96897777	1.0134617	0.26079162	-0.70955797	0.8695567	-0.20269122	-0.85474201	0.80427724	0.29252299
69	0.272	-1.1037121	0.081246884	-0.1010388	-0.76161823	0.035731834	0.064638281	-1.1388293	0.20721555	-0.11652816	-0.89715699	0.062076069	0.084417897	-1.1147914	0.21021157	-0.036401034	-0.87569169	0.081071172	-0.0014140959	-1.1952601	0.24770048	-0.060486746	-0.95131057	0.038484	0.02137616	-0.82708986	0.4150183	-0.15457272	-0.81907567	0.44146594	0.12083032	-0.82045986	0.40801967	-0.029392577	-0.85652175	0.43570144	-0.002734075	-0.91828666	0.8036694	-0.15256712	-0.89181864	0.80858236	0.18929798	-0.84142472	0.8556079	-0.11736522	-0.80923899	0.86504923	0.12843241	-1.0103966	0.93409022	0.034162475	-0.87744595	1.3479896	-0.15494381	-0.86798184	1.319916	0.20529693	-0.94974551	1.3751759	0.02786473	-0.89690578	1.0279017	-0.23059543	-0.96115648	1.0147413	0.26157408	-0.70721888	0.8696742	-0.20328767	-0.84255965	0.80706811	0.29209491
70	0.276	-1.0844879	0.080373309	-0.10114563	-0.76168965	0.035757438	0.064710953	-1.1233414	0.20503682	-0.11597295	-0.89730916	0.062069418	0.084517764	-1.0986948	0.20845559	-0.035903783	-0.87572933	0.08130206	-0.001191893	-1.1809358	0.24391136	-0.059867047	-0.95155407	0.038488311	0.021770094	-0.81494878	0.41784913	-0.15397898	-0.81847194	0.44153271	0.12110031	-0.80834256	0.41129546	-0.028772976	-0.85621983	0.4359368	-0.00255021	-0.91111341	0.80559703	-0.1522742	-0.88706961	0.80934875	0.1895254	-0.83516933	0.85753248	-0.11675662	-0.80390303	0.86631296	0.12934684	-1.0046875	0.93540311	0.034400782	-0.87197242	1.3494739	-0.15471717	-0.86168818	1.3218121	0.20532829	-0.94388508	1.3765378	0.028170584	-0.89347279	1.0296368	-0.22994199	-0.95332856	1.0159983	0.26228395	-0.70492238	0.86977958	-0.20392034	-0.83038912	0.80990765	0.29164293
71	0.28	-1.0650893	0.079468424	-0.10125587	-0.76176618	0.035779571	0.064793363	-1.1077282	0.20268832	-0.11541538	-0.89741605	0.062107878	0.084636184	-1.082587	0.20651325	-0.035412439	-0.87577488	0.081537087	-0.00098267618	-1.1664673	0.2398299	-0.059182527	-0.95173427	0.03856227	0.022107471	-0.80284842	0.42069297	-0.15335404	-0.81791918	0.44158271	0.1213317	-0.79636607	0.41464134	-0.028090042	-0.8561503	0.43615421	-0.0025161003	-0.9037992	0.80754641	-0.15202211	-0.88189966	0.81012	0.18984731	-0.82876051	0.8594591	-0.11600602	-0.79856173	0.86750265	0.13025963	-0.99884086	0.93660014	0.034531888	-0.86649281	1.3509013	-0.15449657	-0.85539186	1.3236587	0.20535212	-0.93802347	1.3778257	0.028468334	-0.8900575	1.0313338	-0.22929582	-0.94522687	1.0171557	0.26306506	-0.70266246	0.8698709	-0.204584	-0.8182645	0.81279126	0.29117207
72	0.284	-1.045629	0.078475196	-0.10136948	-0.76186008	0.035785245	0.0648915	-1.0919808	0.20018436	-0.11485189	-0.89746305	0.062196922	0.084779141	-1.0666525	0.20436544	-0.034875669	-0.87580645	0.081781198	-0.00078692113	-1.1518466	0.23543568	-0.058371213	-0.9517321	0.038762089	0.022219263	-0.79086126	0.42353956	-0.15268351	-0.81744567	0.44162221	0.12154743	-0.78455339	0.41803474	-0.027353242	-0.85614389	0.43636917	-0.0025791063	-0.89637379	0.80957126	-0.15218227	-0.87660326	0.81085676	0.19013985	-0.82217352	0.86134021	-0.11512622	-0.7929883	0.86867897	0.13119163	-0.9929309	0.9377341	0.034644076	-0.86099946	1.352261	-0.15427782	-0.84908672	1.3254482	0.2053645	-0.93216877	1.379041	0.028749255	-0.88665569	1.0329834	-0.22866812	-0.9368682	1.0182213	0.26415475	-0.70042093	0.8699401	-0.20527082	-0.80618862	0.81572014	0.29068803
73	0.288	-1.0261506	0.077379721	-0.10150605	-0.76197978	0.035764958	0.065008018	-1.0760543	0.1975372	-0.11430013	-0.89747363	0.062316071	0.084941392	-1.0507219	0.20206056	-0.034349391	-0.87580721	0.082034304	-0.00059934088	-1.1370656	0.23073836	-0.057446225	-0.95150384	0.039084721	0.022046975	-0.77905245	0.42638482	-0.15196169	-0.81696734	0.44166071	0.12178247	-0.77289876	0.42145524	-0.026556707	-0.85596808	0.43664996	-0.002617684	-0.88887074	0.81162737	-0.15261081	-0.8714725	0.81152785	0.19021911	-0.81554708	0.86314236	-0.11420143	-0.7870391	0.86986723	0.13215045	-0.98693745	0.93885807	0.034658572	-0.8554929	1.3535443	-0.15404911	-0.84277853	1.3271686	0.20536705	-0.92633279	1.3801821	0.029010435	-0.88326895	1.0345783	-0.22806636	-0.92849831	1.0192932	0.26572365	-0.69818901	0.86998074	-0.2059797	-0.79412796	0.81869609	0.29019288
74	0.292	-1.0066132	0.07622522	-0.1016849	-0.76211313	0.035731452	0.065141531	-1.0598718	0.19474981	-0.1138074	-0.89748268	0.062439062	0.085112362	-1.0345578	0.19967989	-0.033944759	-0.87580985	0.082277037	-0.00041380046	-1.1220967	0.22580071	-0.056522796	-0.95117506	0.039446654	0.021750992	-0.76742676	0.42922694	-0.15119295	-0.81642013	0.44169855	0.12206425	-0.76141449	0.4248761	-0.025702677	-0.85556026	0.43704976	-0.0025809731	-0.88134079	0.81360483	-0.15290697	-0.86659797	0.81212757	0.19001144	-0.80901464	0.86487667	-0.11330748	-0.78083975	0.87100881	0.13313128	-0.98072531	0.94004202	0.034374022	-0.84998584	1.3547486	-0.153806	-0.83648227	1.3288096	0.20536836	-0.9205168	1.3812464	0.02925693	-0.87989751	1.0361128	-0.22747945	-0.92022379	1.0204163	0.26758413	-0.69596879	0.86998774	-0.20670791	-0.78205864	0.82171172	0.28968478
